HIERARCHY
ROOT Hips
{
  OFFSET 51.777 86.7886 27.9936
  CHANNELS 6 Xposition Yposition Zposition Zrotation Xrotation Yrotation
  JOINT spine
  {
    OFFSET 0 6.84637 0.3937
    CHANNELS 3 Zrotation Xrotation Yrotation
    JOINT spine1
    {
      OFFSET 0 9.49621 0
      CHANNELS 3 Zrotation Xrotation Yrotation
      JOINT spine2
      {
        OFFSET 0 9.09909 0
        CHANNELS 3 Zrotation Xrotation Yrotation
        JOINT Neck
        {
          OFFSET 0 23.3612 1.11378
          CHANNELS 3 Zrotation Xrotation Yrotation
          JOINT Head
          {
            OFFSET 0 7.05802 0
            CHANNELS 3 Zrotation Xrotation Yrotation
            End Site
            {
              OFFSET 0 17.0844 -5.63419
            }
          }
        }
        JOINT RightShoulder
        {
          OFFSET -3.83136 9.82631 -0.533491
          CHANNELS 3 Zrotation Xrotation Yrotation
          JOINT RightArm
          {
            OFFSET 0 12.8881 0
            CHANNELS 3 Zrotation Xrotation Yrotation
            JOINT RightArmRoll
            {
              OFFSET 0 6.50617 0
              CHANNELS 3 Zrotation Xrotation Yrotation
              JOINT RightForeArm
              {
                OFFSET 0 18.9501 0
                CHANNELS 3 Zrotation Xrotation Yrotation
                JOINT RightForeArmRoll
                {
                  OFFSET 0 7.30092 0
                  CHANNELS 3 Zrotation Xrotation Yrotation
                  JOINT RightHand
                  {
                    OFFSET 0 14.6514 0
                    CHANNELS 3 Zrotation Xrotation Yrotation
                    End Site
                    {
                      OFFSET 0 0 0
                    }
                  }
                }
              }
            }
          }
        }
        JOINT LeftShoulder
        {
          OFFSET 3.83136 9.82631 -0.533491
          CHANNELS 3 Zrotation Xrotation Yrotation
          JOINT LeftArm
          {
            OFFSET 0 12.8881 0
            CHANNELS 3 Zrotation Xrotation Yrotation
            JOINT LeftArmRoll
            {
              OFFSET 0 6.50617 0
              CHANNELS 3 Zrotation Xrotation Yrotation
              JOINT LeftForeArm
              {
                OFFSET 0 18.9501 0
                CHANNELS 3 Zrotation Xrotation Yrotation
                JOINT LeftForeArmRoll
                {
                  OFFSET 0 7.30092 0
                  CHANNELS 3 Zrotation Xrotation Yrotation
                  JOINT LeftHand
                  {
                    OFFSET 0 14.6514 0
                    CHANNELS 3 Zrotation Xrotation Yrotation
                    End Site
                    {
                      OFFSET 0 0 0
                    }
                  }
                }
              }
            }
          }
        }
      }
    }
  }
  JOINT RightUpLeg
  {
    OFFSET -6.06837 -1.11278 -0.933477
    CHANNELS 3 Zrotation Xrotation Yrotation
    JOINT RightUpLegRoll
    {
      OFFSET 0 17.1796 0
      CHANNELS 3 Zrotation Xrotation Yrotation
      JOINT RightLeg
      {
        OFFSET 0 -21.2743 0
        CHANNELS 3 Zrotation Xrotation Yrotation
        JOINT RightLegRoll
        {
          OFFSET 0 21.3439 0
          CHANNELS 3 Zrotation Xrotation Yrotation
          JOINT RightFoot
          {
            OFFSET 0 17.7652 0
            CHANNELS 3 Zrotation Xrotation Yrotation
            JOINT RightToeBase
            {
              OFFSET 0 14.8508 0
              CHANNELS 3 Zrotation Xrotation Yrotation
              End Site
              {
                OFFSET 0.0062947 7.19213 -0.829005
              }
            }
          }
        }
      }
    }
  }
  JOINT LeftUpLeg
  {
    OFFSET 6.06837 -1.11278 -0.933477
    CHANNELS 3 Zrotation Xrotation Yrotation
    JOINT LeftUpLegRoll
    {
      OFFSET 0 17.1797 0
      CHANNELS 3 Zrotation Xrotation Yrotation
      JOINT LeftLeg
      {
        OFFSET 0 21.2742 0
        CHANNELS 3 Zrotation Xrotation Yrotation
        JOINT LeftLegRoll
        {
          OFFSET 0 21.5412 0
          CHANNELS 3 Zrotation Xrotation Yrotation
          JOINT LeftFoot
          {
            OFFSET 0 17.5679 0
            CHANNELS 3 Zrotation Xrotation Yrotation
            JOINT LeftToeBase
            {
              OFFSET 0 14.8508 0
              CHANNELS 3 Zrotation Xrotation Yrotation
              End Site
              {
                OFFSET -0.0282102 7.19213 -0.829005
              }
            }
          }
        }
      }
    }
  }
}
MOTION
Frames: 10
Frame Time: 0.00208333
53.6053 74.5139 10.4778 6.72984 36.2187 -8.97332 0.0300029 -0.224537 0.599824 0.0565512 3.55411 1.19585 0.0422464 5.19905 1.19611 -18.4105 -16.5013 -2.67983 15.5468 13.9893 -3.98573 47.3466 -4.97948 -2.25937 141.385 52.9989 -39.8459 4.14656e-006 -1.80724e-006 -1.16788e-005 31.3503 0.223863 -1.91269 -3.02328e-006 2.07675e-006 -3.2421 8.03013 -4.95142 0.697669 -66.3638 -7.88103 5.08483 -130.619 58.4821 25.5761 -1.02362e-006 8.41477e-006 1.00797e-006 -32.3716 0.230043 2.96153 3.24815e-006 -1.07351e-006 3.29404 -8.03085 -4.95141 -0.697777 117.375 78.5883 60.8457 -180 1.52584e-005 179.606 163.926 53.6625 -172.063 -3.40666e-006 -2.00808e-007 0.638756 -22.9253 69.5883 21.0951 8.13649 25.2327 -3.48773 -126.011 76.149 -54.5534 4.54188e-006 -4.6773e-006 -0.240242 -24.4098 -55.1527 -13.4396 -1.77578e-007 -3.04992e-006 0.891491 31.7181 73.6422 -27.1265 -8.13649 25.2327 3.48773 
53.6021 74.6077 10.5401 6.7083 36.1256 -8.93797 0.0347719 -0.228662 0.603145 0.0661302 3.54592 1.20189 0.051766 5.19086 1.202 -18.3824 -16.5003 -2.6811 15.5166 13.9513 -3.97944 47.4285 -4.98026 -2.26591 141.343 53.0209 -39.5827 4.14656e-006 -1.80724e-006 -1.16788e-005 31.2592 0.223312 -2.00263 -3.02328e-006 2.07675e-006 -3.24612 8.03013 -4.95142 0.697669 -66.3791 -7.86214 5.075 -130.71 58.4414 25.3843 -1.02362e-006 8.41477e-006 1.00797e-006 -32.1979 0.228942 3.01085 3.24815e-006 -1.07351e-006 3.29693 -8.03085 -4.95141 -0.697777 118.513 78.4568 59.6761 -180 1.52584e-005 179.607 163.994 53.4729 -172.128 -3.40666e-006 -2.00808e-007 0.633987 -22.883 69.5677 21.0724 8.13649 25.2327 -3.48773 -126.984 76.0119 -53.5511 4.54188e-006 -4.6773e-006 -0.238718 -24.3386 -54.9395 -13.3614 -1.77578e-007 -3.04992e-006 0.894587 31.6664 73.6092 -27.0673 -8.13649 25.2327 3.48773 
53.6025 74.6918 10.6009 6.68577 36.0324 -8.90117 0.039827 -0.232586 0.606416 0.0762804 3.53813 1.20779 0.0618592 5.18306 1.20774 -18.3538 -16.5008 -2.68397 15.4845 13.9137 -3.97452 47.5045 -4.98311 -2.27363 141.303 53.0377 -39.325 4.14656e-006 -1.80724e-006 -1.16788e-005 31.167 0.222758 -2.08464 -3.02328e-006 2.07675e-006 -3.24967 8.03013 -4.95142 0.697669 -66.3936 -7.84425 5.06571 -130.8 58.399 25.1975 -1.02362e-006 8.41477e-006 1.00797e-006 -32.0257 0.227849 3.05198 3.24815e-006 -1.07351e-006 3.29938 -8.03085 -4.95141 -0.697777 119.623 78.3214 58.5338 -180 1.52584e-005 179.607 164.062 53.2846 -172.192 -3.40666e-006 -2.00808e-007 0.629182 -22.84 69.5474 21.0502 8.13649 25.2327 -3.48773 -127.938 75.872 -52.5695 4.54188e-006 -4.6773e-006 -0.23717 -24.2655 -54.7281 -13.2821 -1.77578e-007 -3.04992e-006 0.897069 31.6148 73.5767 -27.0089 -8.13649 25.2327 3.48773 
53.5989 74.7867 10.6625 6.66243 35.939 -8.8631 0.0451195 -0.236341 0.609625 0.0869049 3.53068 1.21355 0.072429 5.17561 1.21332 -18.3249 -16.5025 -2.68816 15.4507 13.8766 -3.97076 47.5751 -4.98776 -2.28233 141.264 53.0492 -39.0727 4.14656e-006 -1.80724e-006 -1.16788e-005 31.0741 0.222204 -2.15923 -3.02328e-006 2.07675e-006 -3.2528 8.03013 -4.95142 0.697669 -66.4078 -7.82737 5.05695 -130.888 58.3549 25.0148 -1.02362e-006 8.41477e-006 1.00797e-006 -31.8553 0.226766 3.08602 3.24815e-006 -1.07351e-006 3.30147 -8.03085 -4.95141 -0.697777 120.706 78.1821 57.4186 -180 1.52584e-005 179.608 164.13 53.0974 -172.256 -3.40666e-006 -2.00808e-007 0.624349 -22.7966 69.5276 21.0283 8.13649 25.2327 -3.48773 -128.872 75.7292 -51.6079 4.54188e-006 -4.6773e-006 -0.235602 -24.191 -54.5184 -13.2018 -1.77578e-007 -3.04992e-006 0.899014 31.5632 73.5444 -26.951 -8.13649 25.2327 3.48773 
53.5993 74.8809 10.7079 6.63846 35.8455 -8.82395 0.0506008 -0.239955 0.612762 0.0979065 3.52352 1.21913 0.0833785 5.16845 1.21872 -18.2955 -16.5054 -2.69344 15.4157 13.84 -3.96793 47.6408 -4.9939 -2.29184 141.227 53.0556 -38.8261 4.14656e-006 -1.80724e-006 -1.16788e-005 30.9811 0.221652 -2.22689 -3.02328e-006 2.07674e-006 -3.25553 8.03013 -4.95142 0.697669 -66.4218 -7.81148 5.04874 -130.973 58.3094 24.8354 -1.02362e-006 8.41477e-006 1.00797e-006 -31.6867 0.225692 3.1141 3.24815e-006 -1.07351e-006 3.30325 -8.03085 -4.95141 -0.697777 121.761 78.0391 56.33 -180 1.52584e-005 179.609 164.198 52.9112 -172.319 -3.40666e-006 -2.00808e-007 0.619494 -22.7527 69.508 21.0069 8.13649 25.2327 -3.48773 -129.787 75.5838 -50.6656 4.54188e-006 -4.6773e-006 -0.234018 -24.1154 -54.31 -13.1209 -1.77578e-007 -3.04992e-006 0.900497 31.5114 73.5122 -26.8935 -8.13649 25.2327 3.48773 
53.5923 74.9649 10.7653 6.61403 35.7517 -8.78388 0.0562223 -0.243459 0.615813 0.109188 3.51658 1.22453 0.0946108 5.1615 1.22393 -18.2659 -16.5092 -2.69952 15.3796 13.804 -3.96583 47.702 -5.00127 -2.30197 141.19 53.0572 -38.5854 4.14656e-006 -1.80724e-006 -1.16788e-005 30.8887 0.221106 -2.28811 -3.02328e-006 2.07675e-006 -3.25791 8.03013 -4.95142 0.697669 -66.4359 -7.7966 5.04107 -131.055 58.2625 24.6586 -1.02362e-006 8.41477e-006 1.00797e-006 -31.52 0.224629 3.13731 3.24815e-006 -1.07351e-006 3.30479 -8.03085 -4.95141 -0.697777 122.79 77.8924 55.268 -180 1.52584e-005 179.609 164.266 52.726 -172.382 -3.40666e-006 -2.00808e-007 0.614624 -22.7085 69.4887 20.9857 8.13649 25.2327 -3.48773 -130.684 75.4355 -49.7424 4.54188e-006 -4.6773e-006 -0.232422 -24.039 -54.1026 -13.0396 -1.77578e-007 -3.04992e-006 0.901595 31.4593 73.48 -26.8362 -8.13649 25.2327 3.48773 
53.6014 75.0361 10.8447 6.58932 35.6577 -8.74309 0.0619353 -0.246884 0.618769 0.120653 3.50979 1.22972 0.106029 5.15472 1.22894 -18.236 -16.5138 -2.70617 15.3429 13.7686 -3.96424 47.7594 -5.00957 -2.31255 141.154 53.0541 -38.3506 4.14656e-006 -1.80724e-006 -1.16788e-005 30.7973 0.220567 -2.34339 -3.02328e-006 2.07675e-006 -3.25999 8.03013 -4.95142 0.697669 -66.4503 -7.78272 5.03397 -131.133 58.2145 24.4834 -1.02362e-006 8.41477e-006 1.00797e-006 -31.3555 0.223577 3.15679 3.24815e-006 -1.07351e-006 3.30616 -8.03085 -4.95141 -0.697777 123.792 77.7422 54.2321 -180 1.52584e-005 179.61 164.334 52.5416 -172.444 -3.40666e-006 -2.00808e-007 0.609747 -22.6642 69.4696 20.9648 8.13649 25.2327 -3.48773 -131.562 75.2846 -48.8375 4.54188e-006 -4.6773e-006 -0.230816 -23.9622 -53.896 -12.9582 -1.77578e-007 -3.04992e-006 0.902383 31.4068 73.4478 -26.7788 -8.13649 25.2327 3.48773 
53.5988 75.1315 10.901 6.56451 35.5635 -8.70175 0.0676914 -0.250259 0.621616 0.132205 3.50311 1.2347 0.117536 5.14803 1.23372 -18.2059 -16.5188 -2.71312 15.3057 13.7338 -3.96294 47.8134 -5.01852 -2.32338 141.118 53.0465 -38.1218 4.14656e-006 -1.80724e-006 -1.16788e-005 30.7076 0.220038 -2.39323 -3.02328e-006 2.07674e-006 -3.26179 8.03013 -4.95142 0.697669 -66.4653 -7.76985 5.02743 -131.207 58.1654 24.3091 -1.02362e-006 8.41477e-006 1.00797e-006 -31.1931 0.222538 3.17363 3.24815e-006 -1.07351e-006 3.3074 -8.03085 -4.95141 -0.697777 124.768 77.5886 53.2221 -180 1.52584e-005 179.611 164.401 52.3581 -172.505 -3.40666e-006 -2.00808e-007 0.604869 -22.6199 69.4507 20.944 8.13649 25.2327 -3.48773 -132.423 75.1309 -47.9505 4.54188e-006 -4.6773e-006 -0.229204 -23.8852 -53.69 -12.8768 -1.77578e-007 -3.04992e-006 0.902936 31.3536 73.4153 -26.7213 -8.13649 25.2327 3.48773 
53.5952 75.2158 10.9438 6.53977 35.4689 -8.66005 0.0734418 -0.253614 0.624343 0.143745 3.49647 1.23943 0.129035 5.14139 1.23827 -18.1756 -16.5243 -2.7201 15.2685 13.6997 -3.96171 47.8645 -5.02784 -2.33429 141.082 53.0345 -37.8992 4.14656e-006 -1.80724e-006 -1.16788e-005 30.6202 0.219522 -2.43811 -3.02328e-006 2.07675e-006 -3.26337 8.03013 -4.95142 0.697669 -66.4811 -7.75798 5.02146 -131.275 58.1155 24.1348 -1.02362e-006 8.41477e-006 1.00797e-006 -31.0331 0.221513 3.18895 3.24815e-006 -1.07351e-006 3.3086 -8.03085 -4.95141 -0.697777 125.718 77.4316 52.2375 -180 1.52584e-005 179.611 164.468 52.1754 -172.566 -3.40666e-006 -2.00808e-007 0.599997 -22.5757 69.4319 20.9235 8.13649 25.2327 -3.48773 -133.267 74.9746 -47.0808 4.54188e-006 -4.6773e-006 -0.22759 -23.8083 -53.4843 -12.7958 -1.77578e-007 -3.04992e-006 0.903332 31.2997 73.3825 -26.6632 -8.13649 25.2327 3.48773 
53.596 75.3009 11.0075 6.51527 35.3739 -8.61816 0.0791379 -0.25698 0.626938 0.155178 3.48981 1.24391 0.14043 5.13472 1.24256 -18.1453 -16.5299 -2.72687 15.2314 13.6662 -3.96034 47.9133 -5.03724 -2.34509 141.046 53.0183 -37.6829 4.14656e-006 -1.80724e-006 -1.16788e-005 30.5356 0.21902 -2.47855 -3.02328e-006 2.07675e-006 -3.26475 8.03013 -4.95142 0.697669 -66.498 -7.74713 5.01607 -131.338 58.0648 23.9597 -1.02362e-006 8.41477e-006 1.00797e-006 -30.8755 0.220502 3.20386 3.24815e-006 -1.07351e-006 3.30981 -8.03085 -4.95141 -0.697777 126.643 77.2715 51.278 -180 1.52584e-005 179.612 164.535 51.9933 -172.627 -3.40666e-006 -2.00808e-007 0.595138 -22.5317 69.4131 20.903 8.13649 25.2327 -3.48773 -134.093 74.8155 -46.2281 4.54188e-006 -4.6773e-006 -0.225978 -23.732 -53.2785 -12.7152 -1.77578e-007 -3.04992e-006 0.903646 31.245 73.3493 -26.6046 -8.13649 25.2327 3.48773 
